# xmcd
#
# Track frame offsets:
#	183
#	13283
#	25998
#	39773
#	59168
#	76400
#	96118
#	106568
#	121208
#	139203
#	156305
#	173865
#	188145
#	204270
#	217825
#	230820
#
# Disc length: 3273 seconds
#
# Revision: 0
# Processed by: cddbd v1.5PL3 Copyright (c) Steve Scherf et al.
# Submitted via: audiograbber 1.80
#
DISCID=d50cc710
DTITLE=Claude François - 124 succès, 124 souvenir
DYEAR=1900
DGENRE=blues
TTITLE0=On est qui, on est quoi
TTITLE1=Quelqu'un pleure pour quelqu'un
TTITLE2=Le vagabond
TTITLE3=Magnolia for ever
TTITLE4=Et je t'aime tellement
TTITLE5=Alexandrie, Alexandra
TTITLE6=Hello happiness
TTITLE7=I Know
TTITLE8=So near and yet so far
TTITLE9=My boy
TTITLE10=Crying is in heart
TTITLE11=The vagabond
TTITLE12=Remember when
TTITLE13=You are
TTITLE14=You and i together
TTITLE15=Dont't play that song again
EXTD=Selection du Reader's Digest, Disque 6
EXTT0=
EXTT1=
EXTT2=
EXTT3=
EXTT4=
EXTT5=
EXTT6=
EXTT7=
EXTT8=
EXTT9=
EXTT10=
EXTT11=
EXTT12=
EXTT13=
EXTT14=
EXTT15=
PLAYORDER=
